# xmcd
#
# Track frame offsets: 
#        150
#        12423
#        25573
#        38618
#        50335
#        64184
#        76973
#        90027
#        104273
#        116048
#        127979
#        141184
#        154422
#        167092
#        178611
#        190924
#        204122
#        216633
#        228917
#        241208
#        253955
#        267941
#        279788
#        292370
#        307119
#        320980
#        334102
#        347905
#
# Disc length: 4797 seconds
#
# Revision: 2
# Processed by: cddbd v1.5.2PL0 Copyright (c) Steve Scherf et al.
# Submitted via: ExactAudioCopyFreeDBPlugin 1.0
#
DISCID=9c12bb1c
DTITLE=Various Artist - The Knoxville Sessions  - Knox County Stomp CD 1
DYEAR=2016
DGENRE=Old Time Country Music
TTITLE0=Tennessee Ramblers - Garbage Can Blues
TTITLE1=Tennessee Ramblers - Tennessee Traveler
TTITLE2=Tennessee Ramblers - Ramblers March
TTITLE3=Tennessee Ramblers - In My Dear Old Sunny South
TTITLE4=Tennessee Ramblers - Hawaiian Medley
TTITLE5=Tennessee Ramblers - Give the Fiddlers a Dram
TTITLE6=Southern Moonlight Entertainers - My Carolina Girl
TTITLE7=Southern Moonlight Entertainers - Are You Happy or Lonesome
TTITLE8=Southern Moonlight Entertainers - Lost John
TTITLE9=Southern Moonlight Entertainers - My Cabin Home
TTITLE10=Southern Moonlight Entertainers - My Blue Ridge Mountain Quee
TTITLE10=n
TTITLE11=Southern Moonlight Entertainers - Dream Waltz
TTITLE12=Southern Moonlight Entertainers - Sister Liz
TTITLE13=Southern Moonlight Entertainers - Buckin' Mule
TTITLE14=Ridgel's Fountain Citians - Hallelujah to The Lamb
TTITLE15=Ridgel's Fountain Citians - Be Ready
TTITLE16=Ridgel's Fountain Citians - Free Little Bird
TTITLE17=Ridgel's Fountain Citians - Little Bonnie
TTITLE18=Wise String Orchestra - Yellow Dog Blues
TTITLE19=Wise String Orchestra - How Dry I Am
TTITLE20=Will Bennett - Railroad Bill
TTITLE21=Will Bennett - Real Estate Blues
TTITLE22=Haskell Wolfenbarger - My Little Girl
TTITLE23=Haskell Wolfenbarger - Sailing Out on the Ocean
TTITLE24=Leola Manning - He Cares for Me
TTITLE25=Leola Manning - He Fans Me
TTITLE26=Ballard Cross - Old Black Crow in the Hiclory Nut Tree
TTITLE27=Ballard Cross - My Poodle Dog
EXTD=
EXTT0=
EXTT1=
EXTT2=
EXTT3=
EXTT4=
EXTT5=
EXTT6=
EXTT7=
EXTT8=
EXTT9=
EXTT10=
EXTT11=
EXTT12=
EXTT13=
EXTT14=
EXTT15=
EXTT16=
EXTT17=
EXTT18=
EXTT19=
EXTT20=
EXTT21=
EXTT22=
EXTT23=
EXTT24=
EXTT25=
EXTT26=
EXTT27=
PLAYORDER=
